<?xml version="1.0" encoding="UTF-8"?>
<svg xmlns="http://www.w3.org/2000/svg" width="1254" height="1254" viewBox="0 0 1254 1254" role="img" aria-label="Polarbear Markdown icon">
  <rect x="150" y="150" width="960" height="960" rx="220" fill="#ffffff"/>
  <path d="M 485.00 547.50 Q 484.00 546.00 479.00 543.00 Q 474.00 540.00 471.00 539.00 Q 468.00 538.00 465.50 538.00 Q 463.00 538.00 462.50 537.50 Q 462.00 537.00 458.50 537.00 Q 455.00 537.00 448.50 539.50 Q 442.00 542.00 438.00 546.00 Q 434.00 550.00 432.50 553.00 Q 431.00 556.00 431.00 559.00 Q 431.00 562.00 432.00 564.00 Q 433.00 566.00 434.50 567.00 Q 436.00 568.00 439.50 568.00 Q 443.00 568.00 445.00 566.50 Q 447.00 565.00 448.00 562.50 Q 449.00 560.00 450.50 558.50 Q 452.00 557.00 455.00 556.00 Q 458.00 555.00 462.00 555.50 Q 466.00 556.00 470.00 558.50 Q 474.00 561.00 477.00 561.00 Q 480.00 561.00 482.50 559.00 Q 485.00 557.00 485.50 556.00 Q 486.00 555.00 486.00 552.00 Q 486.00 549.00 485.00 547.50 Z M 334.00 922.00 L 779.00 922.00 L 783.50 921.00 Q 788.00 920.00 792.00 918.00 Q 796.00 916.00 801.00 910.50 Q 806.00 905.00 808.00 898.50 Q 810.00 892.00 809.50 866.00 Q 809.00 840.00 806.50 825.50 Q 804.00 811.00 800.00 797.00 Q 796.00 783.00 787.50 764.50 Q 779.00 746.00 773.00 737.00 Q 767.00 728.00 767.00 717.00 Q 767.00 706.00 768.50 698.00 Q 770.00 690.00 775.00 678.50 Q 780.00 667.00 787.50 656.00 Q 795.00 645.00 808.50 628.00 Q 822.00 611.00 829.00 600.50 Q 836.00 590.00 842.50 578.50 Q 849.00 567.00 856.00 549.00 Q 863.00 531.00 866.00 517.00 Q 869.00 503.00 870.00 485.50 Q 871.00 468.00 869.00 451.50 Q 867.00 435.00 866.00 431.00 Q 865.00 427.00 862.50 422.00 Q 860.00 417.00 855.50 412.50 Q 851.00 408.00 847.00 406.00 Q 843.00 404.00 839.50 403.00 Q 836.00 402.00 831.50 402.00 Q 827.00 402.00 816.00 405.50 Q 805.00 409.00 765.50 424.50 Q 726.00 440.00 723.50 440.00 Q 721.00 440.00 716.00 437.00 Q 711.00 434.00 699.00 429.50 Q 687.00 425.00 676.00 422.50 Q 665.00 420.00 657.00 419.00 Q 649.00 418.00 634.50 418.00 Q 620.00 418.00 611.50 419.00 Q 603.00 420.00 583.50 425.00 Q 564.00 430.00 547.50 437.50 Q 531.00 445.00 516.00 455.00 Q 501.00 465.00 490.00 475.50 Q 479.00 486.00 469.00 484.50 Q 459.00 483.00 450.00 483.50 Q 441.00 484.00 431.00 487.00 Q 421.00 490.00 413.50 494.50 Q 406.00 499.00 398.00 507.50 Q 390.00 516.00 386.00 523.50 Q 382.00 531.00 379.50 540.50 Q 377.00 550.00 377.00 558.50 Q 377.00 567.00 379.00 575.50 Q 381.00 584.00 385.00 592.00 Q 389.00 600.00 392.00 604.00 Q 395.00 608.00 404.00 616.50 Q 413.00 625.00 399.50 639.50 Q 386.00 654.00 371.00 675.00 Q 356.00 696.00 345.00 716.50 Q 334.00 737.00 329.00 749.00 Q 324.00 761.00 317.50 783.50 Q 311.00 806.00 308.00 824.50 Q 305.00 843.00 304.50 867.00 Q 304.00 891.00 305.50 897.00 Q 307.00 903.00 308.50 905.50 Q 310.00 908.00 314.00 912.00 Q 318.00 916.00 326.00 919.00 Q 334.00 922.00 556.50 922.00 Z M 779.00 900.00 L 334.00 900.00 L 331.00 898.00 Q 328.00 896.00 327.00 894.00 Q 326.00 892.00 326.00 872.50 Q 326.00 853.00 326.50 852.50 Q 327.00 852.00 327.00 848.00 Q 327.00 844.00 327.50 843.50 Q 328.00 843.00 329.00 833.00 Q 330.00 823.00 334.50 804.50 Q 339.00 786.00 346.50 766.00 Q 354.00 746.00 361.50 731.50 Q 369.00 717.00 379.00 701.50 Q 389.00 686.00 400.50 671.50 Q 412.00 657.00 426.50 642.50 Q 441.00 628.00 441.50 626.50 Q 442.00 625.00 441.50 620.50 Q 441.00 616.00 439.50 614.50 Q 438.00 613.00 434.50 611.50 Q 431.00 610.00 426.50 607.00 Q 422.00 604.00 416.00 598.00 Q 410.00 592.00 406.00 585.00 Q 402.00 578.00 400.50 573.00 Q 399.00 568.00 399.00 558.50 Q 399.00 549.00 400.50 544.00 Q 402.00 539.00 405.50 533.00 Q 409.00 527.00 414.00 522.00 Q 419.00 517.00 426.00 513.00 Q 433.00 509.00 440.50 507.00 Q 448.00 505.00 454.50 505.00 Q 461.00 505.00 461.50 505.50 Q 462.00 506.00 467.00 506.50 Q 472.00 507.00 475.50 508.50 Q 479.00 510.00 481.50 510.00 Q 484.00 510.00 486.00 509.00 Q 488.00 508.00 494.50 501.00 Q 501.00 494.00 508.00 488.00 Q 515.00 482.00 522.00 477.00 Q 529.00 472.00 537.50 467.00 Q 546.00 462.00 554.50 458.00 Q 563.00 454.00 573.00 450.50 Q 583.00 447.00 596.50 444.00 Q 610.00 441.00 623.00 440.00 Q 636.00 439.00 636.50 439.50 Q 637.00 440.00 644.00 440.00 Q 651.00 440.00 651.50 440.50 Q 652.00 441.00 658.50 441.50 Q 665.00 442.00 676.50 445.00 Q 688.00 448.00 697.50 452.00 Q 707.00 456.00 713.00 459.50 Q 719.00 463.00 722.50 463.00 Q 726.00 463.00 761.50 449.50 Q 797.00 436.00 799.50 441.00 Q 802.00 446.00 805.50 450.00 Q 809.00 454.00 814.00 457.00 Q 819.00 460.00 822.00 461.00 Q 825.00 462.00 832.00 462.00 Q 839.00 462.00 843.00 460.50 Q 847.00 459.00 848.00 459.50 Q 849.00 460.00 849.00 475.50 Q 849.00 491.00 848.50 491.50 Q 848.00 492.00 847.50 498.50 Q 847.00 505.00 844.00 517.00 Q 841.00 529.00 837.00 539.50 Q 833.00 550.00 829.00 558.00 Q 825.00 566.00 818.50 576.50 Q 812.00 587.00 804.50 597.50 Q 797.00 608.00 785.00 623.00 Q 773.00 638.00 766.50 648.00 Q 760.00 658.00 756.00 666.50 Q 752.00 675.00 749.00 686.50 Q 746.00 698.00 746.00 701.50 Q 746.00 705.00 745.50 705.50 Q 745.00 706.00 745.50 721.00 Q 746.00 736.00 750.50 742.00 Q 755.00 748.00 762.00 761.00 Q 769.00 774.00 774.00 787.50 Q 779.00 801.00 782.00 813.50 Q 785.00 826.00 785.00 828.50 Q 785.00 831.00 786.00 834.50 Q 787.00 838.00 788.00 855.00 Q 789.00 872.00 788.50 872.50 Q 788.00 873.00 788.00 882.50 Q 788.00 892.00 786.00 895.00 Q 784.00 898.00 781.50 899.00 Q 779.00 900.00 556.50 900.00 Z M 919.50 269.00 Q 917.00 270.00 915.00 273.00 Q 913.00 276.00 911.50 286.00 Q 910.00 296.00 909.00 297.50 Q 908.00 299.00 897.50 299.00 Q 887.00 299.00 883.50 301.00 Q 880.00 303.00 879.00 305.00 Q 878.00 307.00 878.00 310.00 Q 878.00 313.00 880.00 316.00 Q 882.00 319.00 884.00 320.00 Q 886.00 321.00 894.50 321.00 Q 903.00 321.00 903.50 323.00 Q 904.00 325.00 902.00 335.00 Q 900.00 345.00 899.00 346.00 Q 898.00 347.00 888.00 347.00 Q 878.00 347.00 877.00 347.50 Q 876.00 348.00 874.00 350.50 Q 872.00 353.00 872.00 357.00 Q 872.00 361.00 874.50 364.00 Q 877.00 367.00 878.50 367.50 Q 880.00 368.00 887.50 368.00 Q 895.00 368.00 895.50 368.50 Q 896.00 369.00 895.00 371.50 Q 894.00 374.00 893.00 381.50 Q 892.00 389.00 894.00 392.00 Q 896.00 395.00 898.50 396.00 Q 901.00 397.00 904.00 396.50 Q 907.00 396.00 909.50 394.00 Q 912.00 392.00 913.50 386.50 Q 915.00 381.00 915.50 375.50 Q 916.00 370.00 917.00 369.00 Q 918.00 368.00 934.00 368.00 Q 950.00 368.00 952.00 369.00 Q 954.00 370.00 956.00 373.00 Q 958.00 376.00 958.00 381.50 Q 958.00 387.00 956.50 391.00 Q 955.00 395.00 954.50 401.00 Q 954.00 407.00 956.00 410.50 Q 958.00 414.00 961.00 415.50 Q 964.00 417.00 966.00 417.00 Q 968.00 417.00 970.50 416.00 Q 973.00 415.00 975.50 412.00 Q 978.00 409.00 978.00 403.00 Q 978.00 397.00 974.00 387.00 Q 970.00 377.00 969.50 373.00 Q 969.00 369.00 969.50 368.50 Q 970.00 368.00 978.50 368.00 Q 987.00 368.00 988.50 367.50 Q 990.00 367.00 992.50 365.00 Q 995.00 363.00 996.00 360.00 Q 997.00 357.00 996.00 354.00 Q 995.00 351.00 992.50 349.00 Q 990.00 347.00 980.50 347.00 Q 971.00 347.00 970.50 346.50 Q 970.00 346.00 972.50 334.00 Q 975.00 322.00 975.50 321.50 Q 976.00 321.00 987.50 321.00 Q 999.00 321.00 1001.50 319.50 Q 1004.00 318.00 1005.00 316.50 Q 1006.00 315.00 1006.50 311.50 Q 1007.00 308.00 1006.00 305.50 Q 1005.00 303.00 1003.00 301.50 Q 1001.00 300.00 999.50 299.50 Q 998.00 299.00 990.00 299.00 Q 982.00 299.00 981.50 298.50 Q 981.00 298.00 983.00 288.00 Q 985.00 278.00 983.50 274.50 Q 982.00 271.00 979.00 269.50 Q 976.00 268.00 972.50 268.50 Q 969.00 269.00 967.00 271.00 Q 965.00 273.00 963.00 280.00 Q 961.00 287.00 960.50 291.50 Q 960.00 296.00 959.00 297.50 Q 958.00 299.00 945.00 299.00 Q 932.00 299.00 931.50 297.00 Q 931.00 295.00 932.50 289.00 Q 934.00 283.00 934.00 279.00 Q 934.00 275.00 931.50 272.00 Q 929.00 269.00 925.50 268.50 Q 922.00 268.00 919.50 269.00 Z M 939.50 321.00 Q 952.00 321.00 952.50 321.50 Q 953.00 322.00 952.00 328.00 Q 951.00 334.00 950.00 336.50 Q 949.00 339.00 949.00 341.50 Q 949.00 344.00 948.00 345.50 Q 947.00 347.00 935.00 347.00 Q 923.00 347.00 922.00 346.00 Q 921.00 345.00 921.50 344.50 Q 922.00 344.00 923.50 334.50 Q 925.00 325.00 926.00 323.00 Q 927.00 321.00 939.50 321.00 Z" fill="#000000" fill-rule="evenodd" clip-rule="evenodd"/>
  <circle cx="669.50" cy="507.00" r="19.00" fill="#000000"/>
</svg>
