<?xml version="1.0" encoding="UTF-8"?>
<svg xmlns="http://www.w3.org/2000/svg" width="1254" height="1254" viewBox="0 0 1254 1254" role="img" aria-label="Polarbear Markdown icon">
  <rect x="210" y="190" width="832" height="832" rx="188" fill="#ffffff"/>
  <path d="M 486 549 L 484 546 L 474 540 L 468 538 L 463 538 L 462 537 L 455 537 L 442 542 L 434 550 L 431 556 L 431 562 L 433 566 L 436 568 L 443 568 L 447 565 L 449 560 L 452 557 L 458 555 L 466 556 L 474 561 L 480 561 L 485 557 L 486 555 Z M 675 489 L 669 488 L 668 489 L 661 490 L 653 497 L 651 501 L 651 513 L 653 517 L 657 522 L 665 526 L 673 526 L 678 524 L 684 519 L 688 511 L 688 503 L 686 498 L 682 493 Z M 860 417 L 851 408 L 843 404 L 836 402 L 827 402 L 805 409 L 797 413 L 784 417 L 776 421 L 768 423 L 765 425 L 755 428 L 739 435 L 734 436 L 726 440 L 721 440 L 711 434 L 709 434 L 706 432 L 687 425 L 684 425 L 675 422 L 671 422 L 670 421 L 666 421 L 665 420 L 650 419 L 649 418 L 620 418 L 619 419 L 603 420 L 602 421 L 598 421 L 597 422 L 580 425 L 576 427 L 573 427 L 564 430 L 561 432 L 549 436 L 531 445 L 501 465 L 484 480 L 479 486 L 474 486 L 468 484 L 460 484 L 459 483 L 441 484 L 421 490 L 406 499 L 390 516 L 382 531 L 378 544 L 378 549 L 377 550 L 377 567 L 378 568 L 378 573 L 379 574 L 381 584 L 389 600 L 395 608 L 406 619 L 412 623 L 413 625 L 398 640 L 386 654 L 370 675 L 356 696 L 347 713 L 345 715 L 334 737 L 334 739 L 324 761 L 318 779 L 318 782 L 316 786 L 316 789 L 311 806 L 311 810 L 310 811 L 310 815 L 308 821 L 308 826 L 307 827 L 307 833 L 306 834 L 306 842 L 305 843 L 305 855 L 304 856 L 304 891 L 305 892 L 305 897 L 307 903 L 310 908 L 318 916 L 326 920 L 333 921 L 334 922 L 446 922 L 447 921 L 465 921 L 466 922 L 587 922 L 588 921 L 593 921 L 594 922 L 611 922 L 612 921 L 627 921 L 628 922 L 661 922 L 662 921 L 672 921 L 673 922 L 699 922 L 700 921 L 717 921 L 718 922 L 779 922 L 780 921 L 788 920 L 796 916 L 806 905 L 810 892 L 810 850 L 809 849 L 809 840 L 808 839 L 808 833 L 807 832 L 807 826 L 806 825 L 804 811 L 796 783 L 794 780 L 790 768 L 779 746 L 767 728 L 767 706 L 768 705 L 768 699 L 769 698 L 770 690 L 773 681 L 780 667 L 795 645 L 822 611 L 836 590 L 849 567 L 849 565 L 858 546 L 863 531 L 863 528 L 865 524 L 866 516 L 867 515 L 868 504 L 869 503 L 871 468 L 870 467 L 870 455 L 869 454 L 869 447 L 868 446 L 867 435 L 866 434 L 865 427 Z M 849 460 L 849 491 L 848 492 L 847 505 L 846 506 L 846 510 L 845 511 L 843 522 L 841 526 L 841 529 L 837 538 L 836 543 L 833 548 L 833 550 L 825 566 L 812 587 L 797 608 L 773 638 L 760 658 L 752 675 L 747 692 L 747 697 L 746 698 L 746 705 L 745 706 L 745 730 L 746 731 L 746 736 L 755 748 L 769 774 L 779 801 L 779 804 L 783 816 L 784 825 L 785 826 L 785 831 L 787 838 L 788 867 L 789 868 L 789 872 L 788 873 L 788 892 L 784 898 L 779 900 L 334 900 L 328 896 L 326 892 L 326 853 L 327 852 L 327 844 L 328 843 L 330 823 L 332 818 L 333 809 L 334 808 L 337 793 L 339 789 L 339 786 L 347 763 L 354 748 L 354 746 L 369 717 L 389 686 L 412 657 L 441 628 L 442 625 L 441 616 L 438 613 L 431 610 L 422 604 L 410 592 L 402 578 L 399 568 L 399 549 L 402 539 L 409 527 L 419 517 L 433 509 L 442 506 L 447 506 L 448 505 L 461 505 L 462 506 L 472 507 L 479 510 L 484 510 L 488 508 L 501 494 L 515 482 L 529 472 L 544 464 L 546 462 L 563 454 L 568 453 L 571 451 L 583 447 L 586 447 L 590 445 L 594 445 L 599 443 L 603 443 L 604 442 L 609 442 L 610 441 L 636 439 L 637 440 L 651 440 L 652 441 L 665 442 L 666 443 L 674 444 L 688 448 L 705 456 L 707 456 L 709 458 L 719 463 L 726 463 L 737 458 L 745 456 L 753 452 L 758 451 L 761 449 L 766 448 L 774 444 L 797 436 L 802 446 L 809 454 L 819 460 L 825 462 L 839 462 L 847 459 Z M 922 268 L 917 270 L 913 276 L 913 280 L 912 281 L 912 285 L 910 291 L 910 296 L 908 299 L 887 299 L 882 301 L 880 303 L 878 307 L 878 313 L 882 319 L 886 321 L 903 321 L 904 322 L 904 325 L 903 326 L 900 345 L 898 347 L 878 347 L 876 348 L 872 353 L 872 361 L 877 367 L 880 368 L 895 368 L 896 369 L 894 374 L 892 389 L 896 395 L 901 397 L 907 396 L 912 392 L 914 386 L 914 382 L 915 381 L 916 370 L 918 368 L 950 368 L 954 370 L 958 376 L 958 387 L 955 395 L 954 407 L 956 412 L 958 414 L 964 417 L 968 417 L 973 415 L 978 409 L 978 397 L 970 377 L 969 369 L 970 368 L 987 368 L 990 367 L 995 363 L 997 357 L 995 351 L 990 347 L 971 347 L 970 346 L 975 322 L 976 321 L 999 321 L 1004 318 L 1006 315 L 1007 308 L 1005 303 L 1001 300 L 998 299 L 982 299 L 981 298 L 985 278 L 982 271 L 976 268 L 969 269 L 965 273 L 961 287 L 960 296 L 958 299 L 932 299 L 931 298 L 931 295 L 932 294 L 932 289 L 934 283 L 934 275 L 929 269 Z M 927 321 L 952 321 L 953 322 L 951 334 L 949 339 L 949 344 L 947 347 L 923 347 L 921 345 L 922 344 L 925 325 Z" fill="#000000" fill-rule="evenodd" clip-rule="evenodd"/>
</svg>
